<svg width="25" height="25" viewBox="0 0 25 25" fill="none" xmlns="http://www.w3.org/2000/svg">
<g id="handshake 1" clip-path="url(#clip0_7_35)">
<path id="Vector" d="M14.6031 5.01042C15.5312 4.13854 16.9823 3.925 18.1177 4.49479L21.6292 6.25104H25V4.16771H22.1208L19.05 2.63125C17.15 1.68021 14.724 2.03334 13.174 3.49375L12.5302 4.1L11.801 3.43542C10.8438 2.56354 9.60417 2.08334 8.26979 2.08334C7.46667 2.08334 6.66562 2.27292 5.95 2.63021L2.87812 4.16667H0V6.25H3.37083L6.88333 4.49375C7.94792 3.95834 9.44375 4.10313 10.3979 4.975L11.0094 5.53229L8.25312 8.12813C7.13542 9.24479 6.95729 11.0104 7.83854 12.2302C8.38021 12.9833 9.29583 13.5417 10.3844 13.5417C11.2104 13.5417 12.0031 13.2167 12.576 12.6427L13.624 11.6396L20.2313 16.5948L12.5 22.376L3.47187 15.625H0V17.7083H2.77813L12.5 24.9781L22.2219 17.7083H25V15.625H22.4094L15.149 10.1802L16.9073 8.49688L15.4667 6.99167L11.1198 11.1531C10.9031 11.3698 10.6083 11.4813 10.299 11.4552C9.98854 11.4302 9.71562 11.2729 9.52917 11.0125C9.24375 10.6167 9.33125 9.99688 9.70417 9.62292L14.6031 5.00938V5.01042Z" fill="#BB5337"/>
</g>
<defs>
<clipPath id="clip0_7_35">
<rect width="25" height="25" fill="white"/>
</clipPath>
</defs>
</svg>
